#!OML:ASF C:\Vicon Data\Big\jianyuan-13\jianyuan\Session 1\Capture.male.ASF
:FULLY-SPECIFIED
:DEGREES
112
root -8.172018 17.569487 -15.756081 5.185073 4.475280 -0.517183
lowerback -11.620709 1.685667 0.880630 
upperback 1.764309 2.114005 0.172597 
thorax 8.439300 1.064966 0.083123 
lowerneck -5.346118 -1.861548 3.044198 
upperneck 9.809846 -2.664495 -3.042212 
head 4.093665 -1.421556 -1.705838 
rclavicle 0.000000 0.000000 
rhumerus -38.535402 -14.924227 -79.916617 
rradius 40.259560 
rwrist 22.569802 
rhand -19.144363 -20.109242 
rfingers 0.000000 
rthumb 7.165831 -49.967859 
lclavicle 0.000000 0.000000 
lhumerus -42.064350 37.580694 66.230627 
lradius 25.389533 
lwrist -60.593468 
lhand -19.527941 1.041587 
lfingers 0.000000 
lthumb 6.795482 30.912546 
rfemur -5.362570 3.640671 26.875234 
rtibia 23.339366 
rfoot -23.173278 -1.451385 
rtoes -25.794868 
lfemur -33.681011 -1.560456 -15.023204 
ltibia 10.562673 
lfoot -14.412133 10.034790 
ltoes -41.039537 
113
root -8.151692 17.550563 -15.671603 5.240611 4.303293 -0.753948
lowerback -11.874394 1.706106 1.081594 
upperback 1.732551 2.104856 0.243925 
thorax 8.555915 1.068629 0.051628 
lowerneck -5.345240 -1.813399 3.203053 
upperneck 9.861830 -2.585813 -3.372647 
head 4.111010 -1.394246 -1.844278 
rclavicle 0.000000 0.000000 
rhumerus -38.500915 -14.699036 -79.955591 
rradius 40.143301 
rwrist 22.732561 
rhand -19.123293 -20.046284 
rfingers 0.000000 
rthumb 7.186102 -49.904306 
lclavicle 0.000000 0.000000 
lhumerus -42.483159 37.953003 65.803272 
lradius 25.253535 
lwrist -60.998379 
lhand -19.622330 0.532950 
lfingers 0.000000 
lthumb 6.704401 30.406813 
rfemur -5.137266 3.721701 27.085748 
rtibia 23.344798 
rfoot -23.367210 -1.315985 
rtoes -25.780350 
lfemur -32.210064 -1.623321 -14.865310 
ltibia 7.698838 
lfoot -13.634037 10.083753 
ltoes -41.495194 
114
root -8.132489 17.530581 -15.588219 5.237049 4.238237 -0.949491
lowerback -12.016382 1.675924 1.145515 
upperback 1.695342 2.043914 0.389251 
thorax 8.593498 1.039132 0.162387 
lowerneck -5.398875 -1.728821 3.197361 
upperneck 10.044652 -2.467303 -3.501153 
head 4.191226 -1.345876 -1.887105 
rclavicle 0.000000 0.000000 
rhumerus -38.509145 -14.438925 -79.845437 
rradius 40.086154 
rwrist 22.726415 
rhand -18.968046 -19.925525 
rfingers 0.000000 
rthumb 7.336021 -49.778331 
lclavicle 0.000000 0.000000 
lhumerus -42.808711 38.011488 65.769298 
lradius 25.170544 
lwrist -60.934495 
lhand -19.510496 0.652557 
lfingers 0.000000 
lthumb 6.812392 30.522973 
rfemur -4.846341 3.827491 27.282597 
rtibia 23.384047 
rfoot -23.591521 -1.297440 
rtoes -25.636920 
lfemur -30.562885 -1.788047 -14.744242 
ltibia 4.724837 
lfoot -12.685858 10.483273 
ltoes -42.777427 
115
root -8.107846 17.511059 -15.496508 5.268257 4.073426 -1.048596
lowerback -12.243842 1.697354 1.230106 
upperback 1.676087 2.055172 0.421726 
thorax 8.705709 1.048080 0.158468 
lowerneck -5.560980 -1.652204 3.217493 
upperneck 10.266230 -2.372008 -3.526817 
head 4.307268 -1.302642 -1.903965 
rclavicle 0.000000 0.000000 
rhumerus -38.471204 -14.486119 -79.786949 
rradius 40.015929 
rwrist 22.987462 
rhand -18.980409 -19.960465 
rfingers 0.000000 
rthumb 7.324065 -49.813712 
lclavicle 0.000000 0.000000 
lhumerus -43.138683 38.156439 65.546145 
lradius 25.099181 
lwrist -60.932809 
lhand -19.331217 0.489268 
lfingers 0.000000 
lthumb 6.985418 30.354008 
rfemur -4.568212 3.797085 27.313796 
rtibia 23.439471 
rfoot -23.782746 -1.085138 
rtoes -25.872602 
lfemur -28.453277 -1.866294 -14.746991 
ltibia 1.023610 
lfoot -11.340874 11.027595 
ltoes -43.045086 
116
root -8.086348 17.488136 -15.408760 5.276592 4.101685 -1.200507
lowerback -12.426238 1.655714 1.323864 
upperback 1.662570 1.981229 0.449960 
thorax 8.797736 1.016497 0.126690 
lowerneck -5.568733 -1.585940 3.395100 
upperneck 10.287910 -2.294451 -3.584443 
head 4.318496 -1.260490 -1.952864 
rclavicle 0.000000 0.000000 
rhumerus -38.433149 -14.414449 -79.834877 
rradius 39.921876 
rwrist 23.084849 
rhand -18.935422 -19.930979 
rfingers 0.000000 
rthumb 7.367508 -49.782674 
lclavicle 0.000000 0.000000 
lhumerus -43.447933 38.258360 65.265339 
lradius 24.975562 
lwrist -61.274298 
lhand -19.433261 0.297309 
lfingers 0.000000 
lthumb 6.886926 30.165245 
rfemur -4.278883 3.867606 27.470824 
rtibia 23.487175 
rfoot -24.017645 -1.172989 
rtoes -26.034522 
lfemur -27.635317 -2.131001 -14.673975 
ltibia 0.000000 
lfoot -11.042430 11.077186 
ltoes -43.254250 
117
root -8.064797 17.466460 -15.319584 5.320865 4.148083 -1.514794
lowerback -12.672314 1.640250 1.602033 
upperback 1.660344 1.909267 0.519409 
thorax 8.943711 0.994663 0.037353 
lowerneck -5.591124 -1.564716 3.488442 
upperneck 10.263942 -2.266848 -3.653029 
head 4.314707 -1.246017 -1.991941 
rclavicle 0.000000 0.000000 
rhumerus -38.308242 -14.489747 -79.852237 
rradius 39.697344 
rwrist 23.162216 
rhand -19.097358 -19.921018 
rfingers 0.000000 
rthumb 7.211196 -49.778138 
lclavicle 0.000000 0.000000 
lhumerus -43.666233 38.196018 65.172524 
lradius 24.963779 
lwrist -61.344194 
lhand -19.529652 0.391940 
lfingers 0.000000 
lthumb 6.793855 30.262939 
rfemur -4.076480 3.876467 27.797876 
rtibia 23.571758 
rfoot -24.232016 -1.210217 
rtoes -26.155859 
lfemur -27.362424 -2.395774 -14.436462 
ltibia 0.000000 
lfoot -11.001201 11.172236 
ltoes -43.063432 
118
root -8.041345 17.441805 -15.225632 5.339324 4.129472 -1.604031
lowerback -12.914131 1.625467 1.674695 
upperback 1.666183 1.875003 0.498782 
thorax 9.092325 0.982577 -0.025190 
lowerneck -5.668782 -1.558229 3.288323 
upperneck 10.343088 -2.261107 -3.459024 
head 4.361538 -1.242155 -1.892252 
rclavicle 0.000000 0.000000 
rhumerus -38.256860 -14.674482 -79.838061 
rradius 39.572914 
rwrist 23.467280 
rhand -18.979397 -19.865564 
rfingers 0.000000 
rthumb 7.325035 -49.718777 
lclavicle 0.000000 0.000000 
lhumerus -44.067350 38.423599 64.739309 
lradius 24.963046 
lwrist -61.880661 
lhand -19.281435 0.279446 
lfingers 0.000000 
lthumb 7.033475 30.142555 
rfemur -3.793118 4.023406 27.877686 
rtibia 23.676093 
rfoot -24.529915 -1.334480 
rtoes -26.170076 
lfemur -26.900506 -2.651232 -14.489227 
ltibia 0.000000 
lfoot -10.855711 11.223424 
ltoes -43.127738 
119
root -8.020715 17.419161 -15.135187 5.336563 4.214429 -1.748485
lowerback -13.058404 1.598119 1.739888 
upperback 1.654161 1.821960 0.554998 
thorax 9.161833 0.959469 -0.008704 
lowerneck -5.822532 -1.578579 2.683895 
upperneck 10.533177 -2.293540 -2.899044 
head 4.467919 -1.255939 -1.600126 
rclavicle 0.000000 0.000000 
rhumerus -38.211462 -14.902069 -79.728618 
rradius 39.451176 
rwrist 23.552635 
rhand -19.091628 -20.017024 
rfingers 0.000000 
rthumb 7.216667 -49.873957 
lclavicle 0.000000 0.000000 
lhumerus -44.375408 38.457001 64.590200 
lradius 24.913426 
lwrist -61.990431 
lhand -19.310578 0.164802 
lfingers 0.000000 
lthumb 7.005388 30.028863 
rfemur -3.534325 4.016835 28.046916 
rtibia 23.811081 
rfoot -24.802393 -1.445158 
rtoes -26.224090 
lfemur -26.413783 -2.995267 -14.463757 
ltibia 0.000000 
lfoot -10.408903 11.358539 
ltoes -42.389960 
